<?xml version="1.0" encoding="iso-8859-1"?>
<!-- Generator: Adobe Illustrator 19.0.0, SVG Export Plug-In . SVG Version: 6.00 Build 0)  -->
<svg version="1.1" id="Layer_1" xmlns="http://www.w3.org/2000/svg" xmlns:xlink="http://www.w3.org/1999/xlink" x="0px" y="0px"
	 viewBox="0 0 512 512" style="enable-background:new 0 0 512 512;" xml:space="preserve">
<path style="fill:#F15A24;" d="M256.001,265.758c-45.052,0-81.573,36.521-81.573,81.573s36.521,81.573,81.573,81.573
	s81.573-36.521,81.573-81.573S301.053,265.758,256.001,265.758z M256.001,381.176c-18.692,0-33.844-15.153-33.844-33.844
	c0-18.692,15.153-33.844,33.844-33.844c18.691,0,33.844,15.153,33.844,33.844C289.845,366.023,274.693,381.176,256.001,381.176z"/>
<path style="fill:#FF931E;" d="M345.214,131.44v-1.17c0-49.192-39.346-89.966-88.536-90.33c-49.581-0.367-89.89,39.715-89.89,89.21
	v2.29c0,29.838-12.526,58.15-34.089,78.771c-33.967,32.483-55.124,78.25-55.124,128.962h356.853
	c0-50.71-21.157-96.477-55.124-128.962C357.739,189.589,345.214,161.277,345.214,131.44z"/>
<path d="M386.353,202.84c-19.662-18.802-30.939-44.827-30.939-71.401v-1.169c0-39.374-22.662-73.66-55.482-90.13
	C297.913,17.671,278.986,0,256.001,0c-22.906,0-41.786,17.551-43.913,39.909c-9.535,4.703-18.35,10.971-26.12,18.684
	c-18.945,18.805-29.38,43.864-29.38,70.557v2.289c0,26.574-11.277,52.598-30.939,71.401
	c-37.579,35.938-58.274,84.355-58.274,136.333c0,5.632,4.567,10.199,10.199,10.199h86.679c1.014,46.235,36.39,84.146,81.548,89.163
	v63.266c0,5.632,4.567,10.199,10.199,10.199c5.632,0,10.199-4.567,10.199-10.199v-63.266c45.158-5.016,80.534-42.928,81.548-89.163
	h86.679c5.632,0,10.199-4.567,10.199-10.199C444.626,287.194,423.931,238.778,386.353,202.84z M256.001,20.398
	c8.595,0,16.136,4.595,20.297,11.457c-6.319-1.337-12.855-2.065-19.545-2.115c-0.254-0.002-0.505-0.003-0.759-0.003
	c-6.885,0-13.662,0.702-20.254,2.059C239.909,24.967,247.431,20.398,256.001,20.398z M184.678,349.372h27.331
	c0.911,19.869,15.049,36.336,33.793,40.799v27.796C211.92,413.095,185.667,384.345,184.678,349.372z M279.553,349.372
	c-0.731,8.513-5.988,15.754-13.353,19.29v-4.842c0-5.632-4.567-10.199-10.199-10.199c-5.632,0-10.199,4.567-10.199,10.199v4.842
	c-7.364-3.536-12.622-10.776-13.353-19.29H279.553z M266.2,417.965v-27.795c18.744-4.462,32.882-20.93,33.793-40.799h27.331
	C326.335,384.345,300.082,413.095,266.2,417.965z M88.074,328.973c2.504-42.465,20.63-81.702,51.673-111.391
	c23.666-22.631,37.24-54.03,37.24-86.143v-2.289c0-21.216,8.293-41.132,23.352-56.079c15.057-14.946,35.031-23.087,56.263-22.932
	c43.237,0.319,78.414,36.267,78.414,80.131v1.169c0,32.113,13.574,63.511,37.24,86.143c31.044,29.688,49.169,68.925,51.673,111.391
	H88.074z"/>
<path d="M300.607,300.166h-11.153c-5.632,0-10.199,4.567-10.199,10.199c0,5.632,4.567,10.199,10.199,10.199h11.153
	c5.632,0,10.199-4.567,10.199-10.199C310.806,304.733,306.24,300.166,300.607,300.166z"/>
<path d="M258.788,300.166h-146.83c-5.632,0-10.199,4.567-10.199,10.199c0,5.632,4.567,10.199,10.199,10.199h146.83
	c5.632,0,10.199-4.567,10.199-10.199C268.988,304.733,264.421,300.166,258.788,300.166z"/>
<g>
</g>
<g>
</g>
<g>
</g>
<g>
</g>
<g>
</g>
<g>
</g>
<g>
</g>
<g>
</g>
<g>
</g>
<g>
</g>
<g>
</g>
<g>
</g>
<g>
</g>
<g>
</g>
<g>
</g>
</svg>
