<?xml version="1.0" encoding="UTF-8"?>
<svg data-bbox="102.888 350.031 370.118 342.172" viewBox="0 0 595.3 841.9" xmlns="http://www.w3.org/2000/svg" data-type="color">
    <g>
        <path d="M336.5 535.7h95.8c1.9 0 2.8-.6 3.8-2 5-7.2 12.9-9.6 21.6-8 9.1 1.7 15.2 8.6 15.3 16.3.2 8.4-5.4 15.4-14.6 17.4-9.5 2.1-18.5-.9-23.4-9.3-.8-1.4-1.7-1.8-3.4-1.8h-191c-2.8 0-5.3-.1-7.4-2.1-1.9-2-2-4.2-1.3-6.3.7-2.2 2.6-3.6 5.2-4 1.2-.2 2.5-.3 3.8-.3 32 .1 63.8.1 95.6.1z" fill="#ffffff" data-color="1"/>
        <path d="M450.5 514.3c-1 2.8-3.1 4.3-6.4 4.4-1.8.1-3.6 0-5.3 0H244.5c-2.8 0-5.3-.3-7.2-2.2-2-2-2.2-4.4-1.2-6.7 1-2.4 3.4-3.6 6.3-3.9.7-.1 1.4 0 2.1 0h188.9c2.8 0 2.8 0 2.8-2.4 0-7.4.1-14.9.1-22.3.7 0 .8.5.9.9.2.5.1 1.1.1 1.7 0 4.4-.6 4 4.7 4.3 2.2.1 4.5.4 6.8-.3 1.4-.4 1.7.3 1.7 1.4v23.2c.2.7.4 1.3 0 1.9z" fill="#ffffff" data-color="1"/>
        <path d="M368.5 407.1c-2.6.7-3.4 2.1-3.4 4.6.2 23.6.1 47.2.1 70.8 0 1.9-.5 3.6-2.1 4.9-1.2.9-2.5 1.5-4.2 1.5H269c-2.8 0-5.8-2.3-6.3-4.8-.6-3.2 1.2-6.3 4.1-7.3 1.5-.5 3-.7 4.6-.7 25.5 0 51.1 0 76.6.1 2.2 0 2.7-.5 2.7-2.4-.1-21.3 0-42.6 0-63.8 0-.6 0-1.1-.1-1.7-.7-1.4.2-1.8 1.5-1.6 1.9.3 3.8.2 5.7.3 2.7.2 5.2-.3 7.6-1.3 1.9-.8 3-.2 3.1 1.4z" fill="#ffffff" data-color="1"/>
        <path d="M235.7 407.8c-3 7-7.3 13.1-14.1 17.8-2.4 1.7-2.3 2.3.6 3.3 4 1.4 8 .7 11.8-.8 7.5-2.9 15.2-3.8 23.1-2.1 7.6 1.6 14.5 4.6 20.4 9.2 5.4 4.1 9.4 9 11.1 15.1 2 7.4-1.2 12.8-9.2 16.1-5.2 2.1-10.8 3.2-16.3 4.3-7 1.4-13.9 3-20.5 5.4-.9-.6-1.7-2.1-3.1-.3-.2.3-.8.3-1.2.2-3.4-.9-6.9-.4-10.3-.4-2.2 0-3.9-.5-4.8-2.3-.3-1.2.8-1.8 1.6-2.4 5.4-4.3 11.7-7.2 18.6-9.3 6.6-2.1 13.6-3.3 20.4-4.7 2.8-.6 5.5-1.1 8.2-2.1 1.8-.7 2-1.1 1.3-2.7s-1.8-3-3.1-4.2c-6.1-5.7-13.4-9.1-22.6-9-2.3 0-4.5.5-6.6 1.4-5.4 2.1-11.1 3.2-17 2.7-7.1-.5-13-2.9-17.1-8.2-3.9-5.1-3.2-11.9 1.6-16.4 1.6-1.5 3.4-2.9 5.2-4.2 2-1.5 3.7-3.3 5.4-5 1.3-1 2.8-1.3 4.5-1.3 2.7 0 5.5.2 8.2.1 1.1-.1 2.2 0 3.3-.5.4-.5 1-.5.6.3z" fill="#ffffff" data-color="1"/>
        <path d="M149.5 531.9c-3.6-3.5-6.3-7.5-8.7-11.6-1.8-2.9-3.2-6-3.8-9.3-.7-3.3-3-5.3-6.4-6.4-3.2-1-6.5-1.9-9.7-2.8-1.2-.4-1.6.1-1.8 1.1-1.5 10-1.5 20-.9 30 .3 5.6 1.6 11.1 2.3 16.7-1.6-.2-1.7-1.3-1.6-2.4.1-1.4-.7-2-2.1-1.9-1.8.1-3.5 0-5.3-.1-2.5-.2-4.6.3-6 2.2-1.1-3-1.1-6.1-1.6-9.2-.9-7-1.2-14-.9-21.1.5-10.7 1.9-21.3 4.7-31.7l.9-3.3c1.2-.5.5-1.6.8-2.4.5-1.1.9-1.6 2.4-1.3 2.6.5 5.4-.1 8 .5.8.2 1.3-.4 1.6-1 .2-.4.3-.8.6-1.2.3-.4.7-.7 1.2-.6.7.1.9.6.8 1.2-.3 1.4.1 2.7.3 4.1-.2 1.7-.7 3.3-1.1 4.9-.5 2-.4 2.2 1.9 2.8 2 .6 4.1 1 6.1 1.6 5.2 1.5 10.2 3.5 14.2 6.9 3.1 2.6 5.1 5.8 5.9 9.3 1.2 5.3 4.3 9.8 7.7 14.2 2.1 2.8 5 5.1 7 8 .5 1.9.5 1.9-1.5 2-1.6.1-3 .7-4.6.9-1.4.2-2.9.3-4.2 0-1.2-.3-2.1-.2-2.9.8-.8.9-1.8 1.1-2.4-.3-.3-.4-.6-.6-.9-.6z" fill="#ffffff" data-color="1"/>
        <path d="M192.6 382.4c5.8-3.6 12.3-6.3 18.7-9 8.5-3.6 17.5-6.4 26.5-8.7 7-1.8 14.1-3.1 21.3-4.2 7-1 14.1-1.5 21.1-2.1 1.1-.1 1.6-.7 2.1-1.4 3.9-5.6 9.8-7.6 16.9-6.8 6.1.7 12.4 5.7 13.1 12 .7 6.1-1.6 10.7-7.4 14.2-4.5 2.7-12.1 2.8-16.7.3-2.1-1.2-4-2.5-5.4-4.4-1.1-1.5-2.7-.8-4.1-.7-4.5.3-9.1.5-13.5 1.1-5.1.7-10.2 1.4-15.1 2.6-4.8 1.2-9.7 2.1-14.5 3.5-5.2 1.6-10.4 3.3-15.4 5.4-.7.3-1.3.5-2 .5-3.3-.9-6.8-.8-10.3-.9-2.9-.1-5.8-.3-8.7-.2-2.1 0-4.5-.1-6.6-1.2z" fill="#ffffff" data-color="1"/>
        <path d="M266.1 579.4c-6.8-1.8-6.4-8.8-2.9-11.2 1.5-1 3.1-1.4 4.9-1.4h99.6c4.2 0 6.9 2.3 7.3 5.9.1 1 .2 2.1.2 3.2v30.3c0 .8.1 1.6.2 2.4-1.5-.2-1.1-1.3-1.1-2-.1-3.5 0-7 0-10.5 0-1.9.2-3.8-.9-5.5 0-.1-.1.1-.2.1-3.3 0-6.4.6-9.4 1.6-1.7.6-2.3-.5-2.4-2v24.2c0 .4-.1.9-.3 1.3-.1.2-.4.3-.7.2-.5-.6-.2-1.3-.2-2v-32.4c0-2.1 0-2.1-2.4-2.1h-89.2c-.9.1-1.7.3-2.5-.1z" fill="#ffffff" data-color="1"/>
        <path d="M123.9 481.4c-.2-1.3-.8-2.7-.3-4 .1-.4.3-.8-.3-.9-.6-.2-1 .3-1 .7-.3 2.6-1.9 2.6-4.3 2.1-1.5-.3-3.2 0-4.9 0-.4 0-.8.3-1.2 0-.5-.2-.9-1.1-1.6-.4-.7.6-1.1 1.4-.7 2.4.5 1.1.2 1.5-1.1.9 1.3-5.8 3.6-11.4 5.9-16.9 4.9-11.8 11.5-22.9 19.3-33.3 5.6-7.4 11.8-14.4 18.8-20.9 1.9-1.8 3.7-3.8 5.9-5.3.9-.8 2.1-1 3.3-1h14c1.3 0 2.7 0 3.7 1 .3 1.4-.9 2-1.8 2.7-3.4 2.8-6.9 5.6-10.2 8.5-11.4 10.1-20.9 21.5-28.7 34-5.5 8.8-9.7 18.1-13.1 27.6-.4 1-.3 2.2-1.7 2.8z" fill="#ffffff" data-color="1"/>
        <path d="M360.9 615.8v-27.5c1.1.5.7 1.3 1.1 1.9.4.5-.3 1.6.6 1.8.9.2 2.3.1 2.8-.4 2-1.8 4.3-1.4 6.6-1 1.6.3 1.3-1.3 2.3-1.5 1.1 6 .5 12 .6 18 0 .5-.2 1.2.5 1.5 5.5 0 11.1-.1 16.6 0 1.4 0 2.1-.3 2.7-1.5 3.1-6.3 10.3-11.4 21.3-10.4 7.8.7 14.9 6.6 16.6 14 1.1 4.9-.2 9.4-3.2 13.6-.2.4-.4.7-.9.4-2-2.4-4.2-4.6-7.5-5.7-.9-.3-1.8-.5-2.1-1.4-.1-.3-.1-.5-.1-.8.7-1.8 1.2-3.6 0-5.4-1.7-2.8-5.1-3.9-8.3-2.7-3.4 1.2-4.8 4-3.7 7.3.2.5.5 1 .7 1.6v.5c-.2.5-.6.8-1.1 1.1-3.1 1.4-5.3 3.6-7.2 6.1-.2.3-.5.6-.9.8-1.3-.2-1.7-1.2-2.3-2-.5-.7-.9-1.5-1.9-1.9-2.6-.3-5.2-.1-7.8-.1h-5c-1-.1-2 .1-2.9-.4-.3-1.3 1-1 1.6-1 1.8-.2 3.7 0 5.5-.1-4.6-3.5-10.3-3.8-15.9-4.1-2.1-.1-4.2 0-6.4 0-.7-.2-1.6-.1-2.3-.7z" fill="#ffffff" data-color="1"/>
        <path d="M179.4 406.4c-.4-1.1-1.5-1.1-2.4-1.1-5.5-.1-11 0-16.6 0-.6 0-1.2.2-1.8.4 3.9-3.7 8.3-6.9 12.7-10.1 6.5-4.8 13.5-9 20.7-13 .2-.1.4-.1.6-.2 2.2.1 4.3.7 6.4.6 2.7-.1 5.3.1 8 .2 3.5 0 6.9 0 10.3.7.6.1.9.3 1 .8-4.9 2.2-9.8 4.3-14.9 7.2 2.1.3 3.6.2 5.2.1 5-.6 9.9-1.5 15-1.3 8.9.2 15 7.4 13 14.8-.2.8.1 1.8-.7 2.5v-.2c-3.5 1.3-7.1.5-10.7.6-2.1.1-4.2-.2-6 1.1-.4-1.3.9-2.2 1.2-3.3.2-.6 1.1-1.2.4-1.9-.6-.5-1.5-.3-2.2-.1-1.7.4-3.4.5-5 .7-8.7 1.3-17.3.4-25.8-1.4-1.7-.3-2.9 0-4.1.9-1.4.8-2.4 2.1-4.3 2z" fill="#ffffff" data-color="1"/>
        <path d="M245.5 594.6c-3.8-2.6-6.6-5.9-9.7-9.1-3.5-3.6-6.6-7.5-10.5-10.8-2.6-2.3-3.5-2.2-4.9.8-2.4 4.9-4.4 10-6.8 14.9-2.2 4.4-5.2 8.3-9.8 11.2-3.3-2.1-7.1-1.2-10.7-1.1-2.7.1-5.3-.5-8-.2-.8.1-1.4-.5-1.4-1.4 2.3-1.9 5-3.4 7.7-5 4.7-2.8 7.9-6.5 9.9-11.2 1.9-4.5 3.6-9.2 6.3-13.5 1.8-2.8 3.9-5.4 7-7.2 6.2-3.4 13.1-2.7 19.2 1.9 3.4 2.6 6.4 5.7 9.2 8.8 5 5.5 10.1 11 16.3 15.5-3.9 1.8-8.2 1.3-12.4 1.3-1.6 0-3.1.1-4.3 1.1.7.8 1.5 1.5 2.3 2.2.6.6 1.3 1.1.6 1.8z" fill="#ffffff" data-color="1"/>
        <path d="M183.7 598.9c.7.8 1.4 1.5 2.6.7 1.1-.7 1.8.5 2.7.4 1.9-.1 3.9-.3 5.9-.2 1.6.1 3.2-.1 4.8-.1 1.7-.1 3.3.4 4.2 1.9-2.8 2.4-6.2 4.2-9.3 6.2-4.9 3.1-9.3 6.6-12.4 11.1-3.3 4.8-4.7 9.7-2.6 15.1-.5 1.1-1.7 1.7-2 3-.1.6-1 .9-1.8.7-1.1-.2-.9-1.1-1.1-2.1-.8 1.4-2.1 1.6-3.5 1.6-1.8-.1-3.7.1-5.4.6-1 .3-2 .2-2.9-.1-.5-.2-1.2-.3-1.2-.9 0-.6.6-.8 1.2-.9.3-.1.7 0 1-.4-2.6-.2-3.6 1.3-4.8 2.7-6.1-4.9-11.3-10.4-16.5-16-3-3.3-5.8-6.6-8.3-10.2-.1-1.1.4-2 1.7-1.6 2.3.7 3.7-.4 5-1.5 2.3-2 2.4-2 5-.2 1 .8 2.1 1.5 3.2 2.1.7.4 1.4 0 2.1 0 3.8 4.2 7.7 8.4 11.9 12.4 1.5 1.4 1.3-.1 1.5-.7 3-9.8 9.5-17.6 19-23.6z" fill="#ffffff" data-color="1"/>
        <path d="M450.5 514.3v-24.5c0-1.3.1-2.6-1.9-1-.4.3-.7.2-1.2.2-2.8-.1-5.6-.2-8.4-.2-1.3 0-2.2-.4-2.2-1.9 0-1.8.5-3.7-.3-5.5 0-.7-.5-1-1.2-1.3-8.3-3.4-12.9-11.6-10.9-19.2 2.1-8.2 10.1-13.9 19.6-13.9 8.6 0 16 4.5 19 12.1 2.4 6.2.8 13.6-5.9 18.6-1.5 1.1-3 2.3-5 2.6-.9.1-1 .6-1 1.2v30.7c-.2.7 0 1.5-.6 2.1z" fill="#ffffff" data-color="1"/>
        <path d="M149.5 531.9c.5-.5 1-.5 1.2.2.6 1.8 1.3.8 1.8 0 .7-1 1.2-1.3 2.8-.8 2.4.8 5.1.1 7.6-.5.4-.1.8-.3 1.2-.3 1.7 0 1.7 0 1.6-1.2 1.2-.2 1.6.7 2.2 1.2 4.9 4.4 10.1 8.4 16.2 11.5 3.1 1.6 6.4 2.6 10 3.2.9.2 1.8.1 2.8.1 4.9-.2 5.8-1.7 3.6-5.4-1-1.7-2.7-3.1-3.1-5.1.1-1.4 1.1-1.5 2.2-1.1 2.7 1.1 5.4.7 8.2.5 2-.1 4 .1 5.9-.5 3.5 5.2 5.9 10.6 2.1 16.3-2.8 4.2-7.5 6.4-12.7 7.6-7.5 1.8-14.6.6-21.5-2.1-12-4.8-21.4-12.4-29.7-21.1-1-.7-2-1.4-2.4-2.5z" fill="#ffffff" data-color="1"/>
        <path d="M223.3 473.1h.2c1.6 2.4 4.2 1.7 6.6 1.9 2.8.2 5.8-.8 8.5.6.4.2.8 0 .9-.5.1-.5-.1-1.2.9-1.2.9-.1 1.2.6 1.6 1.1.3.4.6.7.6 1.2-5.1 2.2-9.1 5.4-12.1 9.6-2.9 4.1-6.2 8.1-10.5 11.2-2.8 2.1-6.2 3.1-9.8 3.2-2.9.1-5.8 0-8.7 0-2.9 0-5.7.7-8.6 1.2-1.8.4-1.9 1.2-1.2 2.5 1.2 2.4 2.8 4.6 4.3 6.9-1.8 1.5-3 1.6-4.7.3-.7-.6-1.8-.5-2.3-1.2-.2-1.6 0-1.8 2.2-2.1-2.2-.2-2.7.3-2.3 2.1.5.8.3 1.5-.6 1.9-1 .4-1.6-.1-2.1-.8-.7-1.2-1.4-1.4-2.5-.3-1.1 1.1-2.8.5-4.1 1.1-.6-.1-.9-.5-1.2-1-2.4-4.3-3.6-8.7-1.7-13.4 1.1-2.9 3.1-5.2 6.2-6.6 5.3-2.4 11.1-3.5 17-3.6 2.2 0 4.4-.1 6.6 0 2.8.2 4.8-.8 6.5-2.6 2-2.2 3.8-4.5 5.6-6.9.8-1 1.6-2.1 2.5-3 .5-1 1.1-1.7 2.2-1.6z" fill="#ffffff" data-color="1"/>
        <path d="M368.5 407.1c-.6-1.4-1.4-1.6-3.1-.9-1.6.7-3.2 1.7-5.4 1.4-2.8-.4-5.7.3-8.4-.5-1.1-.3-1 .6-1 1.2-6.5-2.3-12-8.8-12.1-15.1-.1-6.8 2.9-11.9 9.1-15.7 6.4-3.9 17.3-3.3 23.6 1.2 9.8 7.1 9.4 21.7-1.5 28-.4.2-.7.5-1.2.4z" fill="#ffffff" data-color="1"/>
        <path d="M288.6 412.3v-23.6c0-3.1 1.7-5.2 4.8-6.1 3-.9 6.4.1 8.4 2.3 1.6 1.8 1.3 4 1.3 5.9.1 15 0 29.9.1 44.9 0 3-3.3 6.6-7.6 6.3-4.1-.3-6.9-2.6-6.9-6.4-.1-7.7-.1-15.5-.1-23.3z" fill="#ffffff" data-color="1"/>
        <path d="M312.6 679.8c-1.6 6.4-5.7 10.9-13.2 12.1-6.6 1.1-12.2-.8-16.3-5.6-.6-.7-1.2-1.3-2.4-1.3-12.7-.4-25.3-2.2-37.6-4.8-.3-.1-.6 0-.8 0-.3-.4-1.6.3-1.3-.8 1.5-.9 3.3-.8 4.9-1.1 2.8-.6 5.3-1.7 8.1-2.2 2.4-.5 4.7-.5 6.8.5 5.6 2.8 10.8 1.4 16-1 .3-.1.7-.3.9-.5 2.5-3.2 6.5-3.5 10.4-3.8 2.7-.2 5.4-.2 8.1.1 3.1.4 5.9 1.2 8.3 3.1 1.3 1 2.7 1.8 4.3 2.4 2.5 1 2.5 1 3.5-1.1.2-.1.5-.1.7 0 .5.6.5 1.2.5 1.9-.3.7-.2 1.5-.9 2.1z" fill="#ffffff" data-color="1"/>
        <path d="M245.5 594.6c0-1.2-1.7-1.3-2-2.2-.3-.7-1.8-.8-1.2-1.6.6-.8 1.5-1.6 2.9-1.6 2.2.1 4.4.1 6.6 0 1.8-.1 3.8.6 5.4-1 .5-.5 1.4.3 2.2.2 5.4 3.4 11.3 5.6 18.1 6 3.3.2 6.5.4 9.8.8 3.5.4 7 1 10.2 2.4 4.1 1.9 5.7 5.5 3.8 8.9-1.8 3.3-6.1 4.4-10.2 2.7-2.8-1.2-5.9-1.4-8.9-1.6-8.6-.6-17.2-1.3-24.8-5.2-4.4-2.2-8.6-4.5-11.9-7.8z" fill="#ffffff" data-color="1"/>
        <path d="M105.4 547.3c.6-2 1.9-2.9 4.4-2.7 2.3.2 4.6 0 6.9 0 2.3 0 3.1.7 2.6 2.6-.3 1.1.4 1.6 1 2.2 1.5 5.7 3 11.4 5 17 2.4 6.8 5.4 13.4 8.9 19.8.2.4.4.9.5 1.4-.2.4-.6.7-1 .4-1-.7-2.1-.7-3.2-1-2.3-.7-4.2-.1-6.3.5-.5.1-1 .5-1.4.3-1.7-1-2.5.2-3.5 1-3.2-5.2-5.3-10.9-7.5-16.5-2.2-5.5-3.6-11.3-5.2-16.9-.1-.5-.1-1-.1-1.5-.4-1.9-.5-3.8-1.2-5.7.2-.2.2-.5.1-.9z" fill="#ffffff" data-color="1"/>
        <path d="M312.6 679.8v-2.2c.4-.3.8-.6 1.3-.6 3.2 0 6.1-1.1 9-2.1 1.8-.7 3.5-.3 5.2.3 2.4.9 4.9 1.8 7.6 1.7 5.6-.3 9-3.1 9.9-8.1.2-1.4.5-2.7.8-4 .9-3.3 3.3-5.1 7.2-5.2l11.3-.3c5.1-.1 10.2-.3 15.2-1.3 2.9-.6 4.3.7 3.8 3.3-.3 1.7-1 3.2-1.5 4.9-.7 2.3-1 4.7.2 7-.1.5 0 .9.7 1.1 3.3 3 7.5 3.6 12.3 1.9 1.7-.6 3.3-1.4 4.8-2.4 3-1.9 6.3-2.9 10.1-3.1 3.1-.2 6.2.1 9.3.2 3 0 5.5 1.4 7.9 2.9 2.4 1.6 5 2.8 8.1 3.2 3.5.4 6.6-.2 9.1-2.6.1-.3.3-.5.4-.8 2.1-3 .9-6-.2-8.8-2.2-5.5-5.1-10.8-7.7-16.2-3.3-6.9-6.6-13.8-10-20.6-.2-.5-.4-.9-.3-1.5.2-.8.7-1.4 1.7-1.7.3-.1.5-.3.8-.4 2.1 4.2 4.1 8.4 6.2 12.7 3.4 7 6.4 14.1 10.3 20.9 2.4 4.1 2.4 8.2 2.4 12.4 0 1.2-.2 2.5 0 3.7.5 2.6-1 3.9-3.4 4.8-5.6 2.2-11 1.7-16.3-.8l-2.1-1.2c-6.3-4.1-13.3-4-20.4-2.3-2.2.6-3.9 2-5.8 3.1-4.8 2.7-9.9 3.4-15.2 1.8-5.3-1.5-8.1-6-7-10.7.3-1.3.8-2.6.7-4-.1-2-1-3-3.2-2.8-6.4.7-12.8.1-19.1.4-4.7.2-6.7 1.5-7.1 6.2-.7 8.2-6.9 12.7-16.2 11.5-2.1-.3-4.2-.7-6.2-1.1-1.9-.4-3.8.3-5.6.6-3.3.2-6.1 1.2-9 .2z" fill="#ffffff" data-color="1"/>
        <path d="M266.9 403.9v-15.5c0-3.1 2.6-5.8 5.8-5.9 5-.3 7.9 1.5 8.4 5.2.5 3.4.2 6.9.2 10.3.1 6.9.1 13.9 0 20.8 0 5.1-4.4 7.9-9.9 6.4-2.5-.7-4.5-3-4.5-5.5-.1-5.3-.1-10.5 0-15.8-.1 0-.1 0 0 0z" fill="#ffffff" data-color="1"/>
        <path d="M158.8 638.3c.4-2.1 2.4-3.6 4.6-3.4.8.1 1.6.3 1.5 1 0 .6-.9.5-1.4.5-.6 0-1.3-.2-1.8.5 1.1.8 2.4.9 3.5.5 2.1-.7 4.2-.7 6.3-.6 1.1 0 2.2 0 2.3-1.3 0-.5.4-.9 1-.7.7.2.7.7.5 1.2-.2.6-.6 1.3.4 1.5 1 .2 1.5-.4 1.4-1.2-.2-1.5 1.5-1.4 2.2-2.1.6 1 .4 2.1-.2 3 1 .6 1.1-.5 1.8-.3.5 1.4 1.7 2.4 2.9 3.3 3.5 2.7 7.2 5.2 11.3 7.2.8.1 1.5.3 1.3 1.2-1.1.9-.7 1.9-.4 2.9.3.8.7 1.5 1.1 2.2 1.2 2.2 1.1 4.2-.8 6.1-.9.9-.1 2.3-1.3 3-3.9-1.7-7.4-4-11-6-7.7-4.3-14.6-9.7-21.4-15-1.2-1.2-2.8-2.1-3.8-3.5z" fill="#ffffff" data-color="1"/>
        <path d="M266.1 579.4h91.3c3.1 0 3.1 0 3.1 2.7v32.2c0 .6-.2 1.3.3 1.8.4.3.5.7.6 1.1 0 1.5-1.3 1.6-2.5 1.6h-20.5c-1.3 0-2.6.1-3.8.3-8.4 1.5-11.8 8.8-6.9 15 .8 1.1 1.8 2.1 2.8 3.1 1.3 1.4 1.4 2.6-.1 3.8-4 3.4-5.4 7.6-5.7 12.3 0 1.1-.3 2.1-.7 3.1-.8 2-2.2 2.3-3.8.8-2-1.9-3.1-4.3-4.3-6.6-4.3-8.3-7.5-17-12.6-25-2.6-4.1-6.5-6.6-12.1-6.5-1.5 0-3-.3-4.2-1.1-.6-.2-1.2-.5-1.5-1.1 0-.2 0-.4.2-.5 3.7-1 7.4-.7 11 .2 4.7 1.1 7.8 3.7 9.9 7.3 3.7 6.4 6.5 13.1 9.8 19.7.7 1.3 1.2 2.6 2.5 3.7 1.1.9 2 .7 2.5-.3 1.3-2.4 2.5-4.9 3.5-7.4.4-1.1-.4-2.2-.9-3.2-2.1-4-3.2-8-1.6-12.4 1.4-4 5.5-7.3 10.3-7.8 8.8-1 17.5-1 26.3-.5 1.2.1 1-.6 1-1.2v-8.6c0-7.9-.1-15.8 0-23.8 0-1.8-.5-2.3-2.6-2.3-29.5.1-59 0-88.5 0-1 0-2 .4-2.8-.4z" fill="#ffffff" data-color="1"/>
        <path d="M246 399.1c0-3.5-.1-7 0-10.5.1-2.9 2.2-5.5 5-6.1 3.6-.8 6.9.3 8.6 3 .8 1.2.9 2.5.9 3.8 0 6.7.1 13.5 0 20.2 0 3.7-3.3 6.6-7.3 6.6s-7.1-2.9-7.2-6.5v-5.2c-.1-1.8-.1-3.5 0-5.3-.1 0 0 0 0 0z" fill="#ffffff" data-color="1"/>
        <path d="M188.8 509.4c1.2.5 2.7.3 3.6 1.7.6.9 2.3-.3 3.5-.6 5.2 6.7 11 13.1 15.9 20.1.7 1 1.6 1.9 1.8 3.1-.6.3-1.2.6-1.8 1-.3.2-.7.6-1.1.4-2.6-1.3-5.2.2-7.9-.3-1.2-.2-2.3 0-3.4-.7-.9-.6-1.7-.5-1.7.8-.9.1-1.2-.5-1.6-1-4.7-6.1-9.9-11.9-14.4-18.2-.9-1.3-2.3-2.6-2-4.3.1-.4.2-.8.7-.8 1.5 0 2.8-.3 3.9-1.5.7-.7 1.7-.2 2.1.7.3.6.3 1.5 1.4 1.3 1.2-.1.9-1 1-1.7z" fill="#ffffff" data-color="1"/>
        <path d="M119.5 588.9c0-.9 1-1.3 1.4-2 .1-.2.6-.3.7-.2 2.7 1.6 4.9-.5 7.4-.8.1 0 .2-.1.3-.2.7 1.5 2.8.4 3.7 1.4.5.5 1 .9 1.8.5 4.3 6.8 8.6 13.7 13.7 20 .9 1.1 1.9 2 2.5 3.2-.6.8-1 1.4-2.3.4-1.3-1-2.8-1.7-4.1-2.8-1-.9-2.2-1.3-3 .2-.9 1.7-3.2 1.7-4.6 2.8-.1.1-.6 0-.8-.1-1.5-1.8-1.8-.1-2.4.7-5.4-7.2-10.4-14.9-14.3-23.1z" fill="#ffffff" data-color="1"/>
        <path d="M285.7 616.5v.4c-.5.4-1.1.3-1.6.3-11.6-.1-23.2 0-34.8-.1-1.5 0-3 0-4.4.4-.8.3-1.6.6-2.4 1-1.3.5-2.6.5-4 .5h-25.6c-2.5 0-4.9.4-7.3 1.1-4 1.1-6.7 3.4-8.3 6.8-.4.8-.6 2-2 2.1 0-1.1.1-2.3-.1-3.4-.6-3.1 1.4-4.9 3.9-6.4 3.6-2.3 7.8-3.3 12.2-3.3 10-.1 20-.3 30 0 14 .5 28 .1 41.9.3.9-.1 1.7-.1 2.5.3z" fill="#ffffff" data-color="1"/>
        <path d="M195.2 628.9c1-.5 1.1-1.6 1.5-2.4 2.2-4.6 6.5-6.8 11.9-7.8 2-.3 4.1-.3 6.1-.3h24.5c1.1 0 2.3-.1 3.3-.4.1 1.3-1 1.9-2 2.6-1 .3-2.1.2-3.2.2-8.9.1-17.8-.2-26.7.3-6.3.4-11 3.7-12.3 9.2-1.2 5-.9 10-.1 15.1.2 1.3.7 2.7-1.1 3.4-.4.1-.7 0-.8-.5-.1-.6-1-.6-1.2-1.1.1-6.1.1-12.2.1-18.3z" fill="#ffffff" data-color="1"/>
        <path d="M240.8 679.5c.5.2 1 .4 1.5.7-11.6.8-23.2.4-34.8.3-4 0-8.2-.8-11.3-3.6-.7-.6-1-1.1-1-1.9.1-2.1 0-4.2 0-6.4 1.2.2 1.2 1.1 1.4 1.9 1.1 3.8 4.2 5.6 8.3 6.5 1.9.4 3.8.5 5.7.5h18.1c.9 0 1.7 0 2.5-.2 3.4.2 6.7.6 9.6 2.2z" fill="#ffffff" data-color="1"/>
        <path d="M196.4 648.4c.2.1.3.2.5.2 3.1.2 4.8 1.9 6.2 4.1.1 1 1.1 1.4 1.8 1.9 3.1 2.4 2.8 4.4-.9 6-1.4.6-2.7 1.3-3.9 2.1-.4.8.2 2-1.3 2.3-1.5-.3-2.7-1.1-3.7-2.1-.1-.1-.1-.2-.1-.3.2-1.4.2-2.8 1.5-4.1 1.7-1.7.7-3.9-.4-5.7-.8-1.2-1.1-2.5-1.1-3.9.2-.9.8-.6 1.4-.5z" fill="#ffffff" data-color="1"/>
        <path d="M195.2 663c1.4.3 2.3 1.2 3.5 1.8.5.6.3 1.3.2 2-.5 2.2.6 4.1 1.3 6.1.1.4.5.6.9.7 3 1 5.9 1.9 9.2 1.9 6 .1 12-.4 18 .5 1.1.4 2.7.2 3.3 1.5-.8.4-1.6.4-2.5.4-6.7 0-13.3.1-20 0-2.7 0-5.4-.4-8-1.6-2.7-1.3-4.5-3.2-5.1-5.8-.2-.7-.3-1.3-.8-1.9V663z" fill="#ffffff" data-color="1"/>
        <path d="M181 636.8c-.6.5-.4 1.9-1.8 1.2-.9-.4-1-1.3-.1-2 .8-.6 0-1.3.2-1.9.6.9 1.2 1.8 1.7 2.7z" fill="#ffffff" data-color="1"/>
        <path d="M105.6 548.4c1.4 1.7 1 3.8 1.2 5.7-.6-1.9-1.2-3.8-1.2-5.7z" fill="#5fa4e0" data-color="2"/>
        <path d="M460.4 542.7c0 3.6-3.2 6.4-7.3 6.4-3.9 0-7.2-2.9-7.2-6.3 0-3.5 3.3-6.4 7.4-6.4 4 0 7.1 2.8 7.1 6.3z" fill="#ffffff" data-color="1"/>
        <path d="M179.7 511.4c1.5 3.5 4.1 6.5 6.5 9.5 3.7 4.7 7.6 9.4 11.4 14 1.3 2 2.7 3.9 3.8 6 1.6 2.7 1.2 3.4-2 4.4-3.4 1-6.8.4-10-.7-7.4-2.3-13.4-6.5-19-11.1-1.7-1.4-3.2-2.8-4.8-4.2-3.3-3.7-6.8-7.2-9.5-11.2-2.3-3.3-4.2-6.7-5.1-10.6-1.8-7.3-7.2-11.9-14.8-14.8-3.7-1.4-7.6-2.3-11.5-3.3-2.8-.7-2.8-.7-2.1-3.2.4-1.6.9-3.3 1.3-4.9 2.1-4.9 3.7-10 6-14.9 5-11.1 11.6-21.5 19.4-31.2 6.5-8.1 13.9-15.5 22.1-22.4 2.6-2.2 5.3-4.3 8-6.5 1.6-.8 3-1.8 4.4-2.9 1-.8 2.1-1 3.3-.7 10.4 2.5 20.9 2.9 31.5.8 1.1-.2 2.5-.6 3.2.2.6.7-.4 1.7-.9 2.5-.6 1-1.2 2.1-1.8 3.1-1.8 2.5-4.2 4.4-6.7 6.3-5.6 4-8.8 8.8-6.8 15.3 1.6 5 5.9 8 11.2 9.8 7.9 2.8 15.7 1.9 23.2-.9 8.5-3.2 16.2-1.7 23.7 2.3 4.6 2.4 8.5 5.6 10.6 10.2.7 1.5.1 2.2-1.4 2.7-4.2 1.4-8.6 2.2-12.9 3.1-10.3 2-20.4 4.3-29.3 9.5-2.6 1.5-5.3 3.1-7.1 5.5-2.8 2.1-4.5 5.1-6.6 7.7l-3.3 3.9c-1.7 1.9-3.7 2.8-6.6 2.7-6.5-.4-12.8.2-19.1 1.9-9.7 2.5-13.2 9.8-10.4 17.2.2 1.6.8 3.4 2.1 4.9z" fill="#ffffff" data-color="1"/>
        <path d="M233.7 469.7c-.6 0-1-.2-.9-.7.1-.5.6-.7 1.1-.7.5 0 .8.3.7.7 0 .6-.5.7-.9.7z" fill="#ffffff" data-color="1"/>
        <path d="M236.3 471.5c-.2.3-.4.7-.9.6-.4-.1-.5-.4-.5-.7 0-.4.3-.5.7-.5.4.1.7.2.7.6z" fill="#ffffff" data-color="1"/>
        <path d="M360.8 617.3c0-.4 0-.7-.1-1.1 0-.1.1-.3.1-.4 6.1-.1 12.1-.2 18.1 1 3.2.6 5.5 2.6 8.9 3.9-3.5.7-6.7-.1-9.6.6-.7.8-1.6.6-2.5.6h-8c-2 0-3.7-.5-5.1-1.8-1-.7-1.4-1.8-1.8-2.8z" fill="#ffffff" data-color="1"/>
        <path d="M362.5 619.6c1.9 1.6 4.2 2 6.8 1.9 3-.2 6-.1 9.1-.1 1 0 2 .1 3 .1-.2.8.1 1.4.8 2 3.7 3.2 4.8 7.2 4.6 11.6-.1 2.1-.1 4.1.2 6.2.5 3.5 0 6.9-1.5 10.1-2.4 4.9-7.3 6.6-12.9 6.9-3.5.2-7.1.1-10.7 0-3.6-.1-7.1.3-10.6.7-2.8.3-4.5 1.7-5.3 4-.5 1.4-1 2.9-1.1 4.4-.2 2.2-1.2 4.1-2.1 6.1-.2.5-.6.9-1.1 1.1-4.1 1.6-8.2 1.8-12.3 0-2.7-1.2-5.4-6.1-4.7-8.7 1.1-4.5 1.6-9 1.4-13.6-.1-3 1.6-5.4 2.5-8 .1-.3.4-.5.7-.6 3.8-1.4 7.5-3.2 12-2.9 4.7.3 9.5.1 14.3.1 1.3 0 2.6 0 3.8-.3.9-.2 2.1-.3 2.1-1.2 0-1.1-1.4-1.1-2.3-1.3-.9-.2-1.8-.2-2.8-.2-4.6 0-9.1-.1-13.7 0-4.8.1-9.1-1.2-13.3-2.8-.4-.2-.8-.4-.9-.7-1-3-2.3-5.8-.9-9.1.8-2 1.7-3.2 4.2-4 3.2-.9 6.4-1.2 9.6-1.3 7-.4 14.1-.1 21.1-.4z" fill="#ffffff" data-color="1"/>
        <path d="M362.5 619.6c-.3 1.1-1.4.7-2.1.7-6.6 0-13.2-.1-19.8.1-3 .1-5.9.8-8.8 1.4-4.1.8-3.2 3.7-4.1 5.6-1.1 2.2 1.2 4.4 1.3 6.6 0 .1.2.4.4.4 3.8.9 7.3 2.8 11.5 2.8 5.5-.1 11 0 16.4 0 1.2 0 2.4.2 3.6.5.8.2 1.7.4 1.7 1.4 0 .9-.7 1.4-1.5 1.6-1.4.4-2.9.7-4.4.7h-17.3c-2.8 0-5.3.7-7.6 2.1-.4.3-.8.5-1.3.5-1.2-.1-1.7.3-1.6 1.4 0 .2 0 .5-.1.7-3.3 3.8-1.5 8.3-2.3 12.5-.4 2.3-.2 4.8-1.1 7-1.1 2.6.2 4.2 1.7 6 2.3 2.8 5.5 3.9 9.3 3.9 2 0 3.4-1.5 5.4-1.3.2 0 .4-.7.6-1.1 1.7-3 1.8-6.3 2.7-9.5.6-2.3 2.7-4.6 6.2-5 7.1-.9 14.2-.3 21.3-.7 5.2-.3 9.8-1.8 12.2-6.3 1.7-3.1 2.2-6.6 1.7-10-.3-2-.4-4-.3-6 .4-5.1-1.2-9.4-5.7-12.8l-.6-.6c.6-.2 1-.4 1.5-.6h5.1c0 .1.1.2.1.3-.1.2-.2.3-.5.4-1.3.2-2.2.3-1 1.7 2.6 2.9 3.3 6.4 3.5 10 .1 2.3.5 4.6.6 6.9 0 .6.2 1.2.5 1.8.4.8 1 .9 1.6.3.9-.8 1.4-1.7 2-2.6 2.1-3.4 3.6-6.9 5.3-10.4.4-.8.6-1.8 1.9-2.1.8 0 1.2.4 1.6.9-.1 2.4-1.8 4.3-2.7 6.4-3 7.2-7.6 13.8-10.6 21-1.3 3.2-2.7 6.4-4 9.6-.7 1.6-.4 3.3-.6 5-.2 1.1 0 2.4-1.6 2.9-2.2-1.9-1.3-4.2-1-6.3.2-1.7.9-3.4 1.6-5 .3-.9.4-1.7.3-2.6-.1-1-.9-1.6-2.1-1.3-9.2 2-18.6 1.5-27.9 1.8-3.4.1-5.5 1.9-6.4 4.7-.9 2.7-.8 5.5-2.3 8.1-1.6 2.8-4.1 3.8-7.1 4.5-3.3.7-6.4-.1-9.4-1.4-2-.8-4-1.1-6.1-.1-3 1.4-6.2 1.9-9.6 1.9 0-.6 0-1.2-.1-1.9 0-1 .9-.8 1.6-.8 1.5.1 2.8-.1 4-.9.3-.2.8-.3 1.2-.3 1.7.2 2.7-.2 2.2-2-.1-.3.1-.6.3-.9 1.7-1.7.9-3.3-.2-5-5.1-7.5-8.5-15.8-12.4-23.8-2.4-4.9-4.6-9.8-7.4-14.5-2.3-3.8-5.6-6.4-10.9-6.5-.9 0-1.5-.4-2.1-.9-.7-.5-1.5-.9-2-1.7-.2-.3-.4-.7-.1-1 1.7 1.1 3.7 1.1 5.7 1.1 4.3.2 7.5 2.2 9.9 5.1 3.5 4.3 5.5 9.3 7.7 14.1 1.6 3.5 3.5 6.8 5 10.3 1 2.3 2.4 4.5 3.6 6.7.2.3.3.7.6 1 .8.8 1.4 2.1 2.6 1.9 1.3-.2 1.3-1.6 1.6-2.6.7-2.6.4-5.3 1.5-7.9 1-2.3 2.2-4.4 4.2-6.1 2-1.7 1.9-2.3 0-4.2-2.6-2.5-4.4-5.2-4.5-8.8-.1-4.6 2.8-7.6 7.5-9.1 1.7-.5 3.6-.8 5.4-.8h21.1c.9 0 2 .2 1.9-1.1.9.7 1.4 1.4 2 2.2z" fill="#ffffff" data-color="1"/>
        <path d="M401.8 628.6c-.4-.3-.7-.7-1.3-.7-1.3-.1-1.7-.9-2.1-1.7v-.3c1.6-2.9 3.9-5.1 7.1-6.8.6-.3 1.2-.7 1.7-1 .6 0 1 .3 1.5.6 3.1 1.6 6.1 1.8 9-.4.4-.3.8-.7 1.5-.5.3.2.6.6 1 .7 3.8.5 5.6 3.4 8.3 5.2.6.4.1.8.2 1.2-.4.5-.8 1.1-1.2 1.6-.5.7-1 1.4-1.7 1.9-1.9 1.2-2.5 1.2-3-.7-1.1-4-3.7-4.7-8.1-4.7-4.8 0-8.1.6-9.4 5.2-.8 2-1.7 2-3.5.4z" fill="#ffffff" data-color="1"/>
        <path d="M407.3 617.7c-2.5-3.7-1.4-7.5 2.6-9.3 3.7-1.7 8.3-.2 9.9 3.2.9 1.8.7 3.6-.5 5.3-1 .7-2.1.7-3.2.5-2.3-.4-4.5-.3-6.6.5-.8.2-1.5.2-2.2-.2z" fill="#ffffff" data-color="1"/>
        <path d="M395 621.7c1.2 1.3 1.9 3 3.4 4.1v.1c.5.5.4 1.1.2 1.6-1.2 2.5-2.2 5-4.1 7.2-.6.7-1.3 1.5-2.4 1.4-1.2-.2-1.6-1.1-1.9-2-.5-1.6-.7-3.2-1.1-4.8-.4-1.9-1.2-3.7-2.2-5.4-.4-.6-1.1-1.2-.4-2 2.8-.4 5.6-.4 8.5-.2z" fill="#ffffff" data-color="1"/>
        <path d="M407.3 617.7c1.3.1 2.3-.5 3.4-.8 2.9-.9 5.7.4 8.6 0v.7c-4.1 3.5-8.1 3.6-12 .4v-.3z" fill="#ffffff" data-color="1"/>
        <path d="M395 621.7h-8.6v-.4c2.3 0 4.7-.1 7-.1.6.1 1.2 0 1.6.5z" fill="#ffffff" data-color="1"/>
        <path d="M142.6 609.5c.6.3 1.2.5 1.1 1.2 0 .4-.5.6-1 .5-.5-.2-1-.4-1-1 .2-.6.5-.7.9-.7z" fill="#ffffff" data-color="1"/>
        <path d="M436.8 464.4c0-3.7 3.1-6.4 7.2-6.3 3.9 0 7.2 2.9 7.3 6.3 0 3.2-3.5 6.4-7.2 6.4-4.2 0-7.3-2.7-7.3-6.4z" fill="#ffffff" data-color="1"/>
        <path d="M188.8 509.4c-.8-.4-1.1-.9-.5-1.6.7-.8 1.6-1.1 2.8-.9 1 .2 1.1.8 1 1.7-1.6-.8-2.8-.8-3.3.8z" fill="#ffffff" data-color="1"/>
        <path d="M351.4 392c0-3.5 3-6.2 6.9-6.2 4.2 0 7.3 2.7 7.3 6.3 0 3.6-3.1 6.4-7.2 6.4-4.1.1-7.1-2.7-7-6.5z" fill="#ffffff" data-color="1"/>
        <path d="M289.1 619.9c.8.6 1.7.8 2.8.8 3.8.2 6.7 1.9 9 4.6 2.4 2.7 3.6 6 5.2 9.1 2.3 4.2 4.3 8.6 6.3 13 3.1 6.6 6.2 13.3 10.4 19.4 1 1.4 1.2 2.8-.3 4.1-.7.6-.7 1.3-.3 2.1.4.9.3 1.4-1 1.3-1.4-.1-2.7-.1-3.9.9-.5.4-1.8.6-2.8.3-.7-.2-1.4-.3-2 .3-.1 0-.2 0-.4-.1-.5-.2-.6-.9-1.3-.9-2 .1-3.1-.9-3.9-2.4-2.7-5.6-1.7-4.7-8.5-4.8-3.2 0-6.4.1-9.5 0-2.6-.1-4.4.6-5.5 2.7-1.2 2.4-3.4 2.8-5.9 2.4-1.3-.2-2.4-.1-3.1 1-.5.8-1.5.9-2.4.9-3.5 0-7 .1-10.4 0-2.2-.1-2.6-.5-1.9-2.5.3-1 .2-1.6-1.1-1.7-.5-.1-1-.1-1.5-.3-1.9-.7-3.1-.1-4.2 1.4-1.4 2.1-3.7 3.1-6.6 3.1-6.7-.1-13.3 0-20 0-.8 0-1.7-.1-2.3-.2 1.4.6 3.6.1 4.4 2-6.2-.7-12.4-.3-18.6-.4-2.5 0-4.9-.3-7.2-1.4-.5-.2-1.1-.5-1.6-.4-1.4.1-1.7-.5-1.6-1.6.1-1.2-1.3-1.9-1.3-3.1 0-1.6 0-3.2.5-4.8 1.6-.5.4-1.7.8-2.5 2.7-.6 5.5-.6 8.2-.6H223c1.2 0 2.3 0 3.5.4-5.5-1.6-10.9-3.7-16-6.2-1.3-.7-2.8-.9-4.2-1.2-1.4-.3-2.8-.5-3.5-1.8-1.3-2.1-3.5-3.3-5.9-4.3 2-.9.9-2.3.7-3.5-.9-5-.9-9.9.1-14.9 1.1-5.5 6.5-9.3 12.8-9.6 10.1-.5 20.1-.1 30.2-.3.5 1.4 1.6 1.7 3.2 1.7 2.6 0 5.2-.2 7.9-.4 2.7-.1 3.2.4 3.3 2.7.1 3.9.1 3.9 4.6 4 5-.1 10-.1 15.1 0 5.9.2 5.9.2 8.2-4.3.7-1.5 1.7-2.4 3.7-2 2.1.5 2-1 2.4-2z" fill="#ffffff" data-color="1"/>
        <path d="M311.7 674.3c.7.3.4.9.5 1.4-.1 3.2-.1 3.1-3.4 1.8-2.3-.9-4.3-2.1-6.2-3.5-2.3-1.8-5.2-2-7.9-2.2-4.9-.3-9.7-.2-14.4 1.5-.2.1-.5.3-.6.4-2.8 3.5-7.2 4.2-11.4 5.1-2.3.5-4.5-.3-6.5-1.3-3.9-1.8-7.7-1.3-11.5.2-3 1.1-6.2 1.6-9.4 1.9-3.1-.6-6.2-1.3-9.3-1.9-.8-.8-2.2-.5-3.1-1.1-1.9-1.1-4.2-1.2-6.7-2.3h16.3c2.6 0 5.1-.2 7.7 0 3.7.3 6-1.2 7.5-3.8.7-1.1 1.3-1.4 2.6-1 .8.3 1.8.4 2.7.6 2.6.4 2.7.4 1.5 2.6-.7 1.3-.4 1.6 1.2 1.6 3.5-.1 7.1-.1 10.6 0 1.2 0 2.1-.2 2.4-1.3.3-1 1.2-1.1 2.2-.9h.2c2.6.7 5 .6 6.3-2 1-.6 2.2-1 3.4-1.1 6.6-.3 13.4-.9 19.2 3 .8.6 1.7 1.1 2.4 1.8 1 .9 2.3 1.4 3.7.5z" fill="#ffffff" data-color="1"/>
        <path d="M401.8 628.6c1.7 1.1 2.7.7 3.1-1 0-.2.2-.3.3-.5.8-4.2 3.8-5.2 8.2-4.6 1.5.2 3.2.2 4.7 0 2.3-.4 3.3.5 3.9 2.3.3.8.9 1.6 1.1 2.4.5 1.8 1.4 1.8 2.7.6 1 .2 1.3.9 1.6 1.6 2.8 6.6 6.3 12.9 9.3 19.5 2.7 5.8 6 11.4 8 17.5.8 2.5.4 5 1.2 7.5l-.4.4c-4.2.9-8.3 2.5-12.8.9-1.9-.7-3.4-1.8-5.1-2.7-3.3-1.8-6.8-2.8-10.7-2.6-1.3.1-2.7.1-4.1 0-5-.3-9.4.7-13.4 3.4-1.5 1-3.3 1.7-5.1 2.3-1.3.4-2.6.8-4 .5-2.5-.5-4.8-1.3-7.3-1.9-.8 0-.6-.4-.4-.8 1.4-1.3 1.2-3.1 1.2-4.5-.2-3 1.5-5.5 2.5-8.2 1.7-4.4 3.5-8.8 6-12.9 2.5-4.2 4.7-8.6 6.7-13.1.8-2 1.8-4.1 2.8-6.1z" fill="#ffffff" data-color="1"/>
        <path d="M383 674.2c1.8-.1 3.4 0 5.1.8 2.1 1 4.4.8 6.5-.1 2.2-.9 4.3-1.9 6.3-3.1 2.7-1.7 5.7-2.6 9-2.4 3.9.1 7.8-.3 11.7.3 3.7.6 6.5 2.6 9.6 4.3 2.7 1.5 5.9 2.1 8.7 1.1 1.9-.6 3.6-.8 5.5-.8-1.3 2.2-6.1 3.8-9.5 3.2-3.1-.5-5.9-1.6-8.4-3.4-2.9-2-6.2-3-10-3-3.5 0-7-.2-10.5.4-2.3.4-4.2 1.4-6.1 2.5-4 2.5-8.2 4.3-13.3 3.1-1.8-.4-3.9-.9-4.6-2.9z" fill="#ffffff" data-color="1"/>
        <path d="M445.8 673.8c-.7-.9-1.2-1.9-1.2-2.9.2-5.2-2.7-9.6-4.8-14.1-4.3-9.2-8.8-18.3-13.1-27.4-.3-.6-.7-1.1-1-1.6.5-.5 1-1.1 1.7-1.4.7 2.9 2.5 5.4 3.7 8.1 2.6 5.7 5.5 11.3 8.2 17 2.1 4.4 4.4 8.7 6.2 13.2 1.3 2.8 2.4 6 .3 9.1z" fill="#ffffff" data-color="1"/>
        <path d="M275.5 628.8h-15.9c-.4-.4-.5-.9-.5-1.4-.2-4.3-5.4-8.6-10.8-8.6-1.6 0-3.1-.3-4.1-1.6 1.1-.8 2.3-.8 3.6-.8h34.7c1 0 2.1.3 3.1.4.4.3.9.5 1.3.8.1.3.3.5.4.8-.1.1-.3.3-.5.4-5.5 1.8-8.8 5.5-11.3 10z" fill="#ffffff" data-color="1"/>
        <path d="M244.2 617.3c1.9 1.1 4.2.8 6.2 1.3 5 1 9.9 5.3 9.1 10.3-5.1.2-5.1.2-5.1-4.2 0-2.5 0-2.6-2.7-2.4-3 .2-6 .2-8.9.2-2.6 0-2.6 0-2.1-2.2.1-1 1.5-1.3 1.8-2.2.6-.4 1-.8 1.7-.8z" fill="#ffffff" data-color="1"/>
        <path d="M202.7 652.9c1 .6 2 1.1 3.3 1.2 3.9.3 6.9 2.6 10.3 3.9 3.6 1.4 7.2 2.7 10.8 4.3h-27.7c1.9-.4 3.2-1.6 4.9-2.3 2.7-1 2.9-2.7.8-4.5-.5-.5-1.2-.8-1.8-1.3-.3-.3-1.1-.6-.6-1.3z" fill="#ffffff" data-color="1"/>
        <path d="M360 643.9c1.5-1.1 3-.6 4.1-1.2 1.7-.9 3.4-2 3.3-3.8-.1-1.8-1.8-2.8-3.8-3.4-.9-.3-1.8-.4-2.8-1.3 2.9 0 5.6-.1 8.1.1 1.1.1 1.7 1 1.7 2.1v5.6c0 1.3-.7 2-2.2 2-2.6-.1-5.3-.1-8.4-.1z" fill="#ffffff" data-color="1"/>
        <path d="M342 663.8v-7c0-.6.3-.9 1-.9 3.1 0 6.2 0 9.3.2-2.2.8-4.6 1.1-6.5 2.4-2 1.4-2.5 3.5-3.2 5.5-.1-.1-.3-.1-.6-.2z" fill="#ffffff" data-color="1"/>
        <path d="M386.4 621.8c1.1 2.3 2.7 4.5 3.2 7 .3 1.7.7 3.4 1.1 5.1.2.7.5 1.6 1.3 1.8.9.2 1.5-.6 1.9-1.2 2-2.6 3.5-5.5 4.4-8.5 1.1.3 1.2 1.5 2.1 1.9-1.6 1.7-2.1 3.8-3 5.7-1.5 3.1-3 6.2-5.1 9-.5.7-1.1 1.7-2.2 1.5-1-.2-1.1-1.2-1.2-2-.3-2-.7-3.9-.8-5.9-.1-4.8-.7-9.4-4.5-13.3-.6-.6-.6-1.2.6-1.1h2.2z" fill="#ffffff" data-color="1"/>
        <path d="M275.5 628.8c-.4-1.4.7-2.4 1.5-3.4 2.6-3.3 5.5-6.3 10.4-7.1.6.5 1.1 1 1.7 1.5.8 2.6.7 2.9-2.4 2.5-2-.2-2.6.4-3.2 1.8-.7 1.6-1.2 3.6-2.5 4.6-1.3 1-3.6 0-5.5.1z" fill="#ffffff" data-color="1"/>
        <path d="M262.6 629.3h11.1c1.1 1.4.5 3-1.7 4.4-.6.2-1.2.2-1.9.3-5.9.6-6.9 6.1-4.8 9.2.4.6.9 1.1 1 1.8-.2 1.3-.9 2.4-1.9 3.3-1.2 1.1-2.7 1.2-3.7 0-2.1-2.6-3.6-5.4-4.3-8.6-.1-.7.2-1.5.5-2.2 1.2-2.2 2.7-4.4 3.1-6.9.4-1.3 1.7-1 2.6-1.3z" fill="#ffffff" data-color="1"/>
        <path d="M214.4 634.2h30.7c.5 0 1.5-.4 1.5.5 0 .6-.8.5-1.4.6-3.9.7-7.9.2-11.9.4-3.7.2-7.4-.3-11 .4-1 .2-1.9.5-2.6 1.2-1 1.1-1 2 .5 2.7 2.4 1.2 5.1 1.1 7.6 1.3 2.9.2 5.8.3 8.7-.2 2.4-.4 4.9.4 7.4.4.3 0 .7.3.9 1h-27.1c-.7-.6-1.3-1.3-1.9-2-1.6-2-.8-4.2 1.8-5.3-.7-.2-1.3.1-1.9 0-.5-.3-1.3-.2-1.3-1z" fill="#ffffff" data-color="1"/>
        <path d="M268.6 650.6c.6 0 1.4-.5 1.8-.1.6.5-.1 1.2-.4 1.7-1.6 3.3-3.2 6.6-4.8 10-.5 1-1.1 1.3-2.3 1.1-2.2-.4-4.5-.4-6.8 0-1.3.2-1.8-.2-1.7-1.4.1-3.2.1-6.4 0-9.5-.1-1.6.4-2.2 2.2-1.7 1.1.5 1.3 1.4 1.4 2.4.1 1.9.7 3.8 1.3 5.7.2.5.3 1.2 1.1 1.2.7.1 1-.4 1.3-.8 1.5-2 3.2-3.8 4.2-6.1.5-1.3 1.3-2.2 2.7-2.5z" fill="#ffffff" data-color="1"/>
        <path d="M262.6 629.3c-1.4.4-2 1.3-2.2 2.5-.3 2-1.6 3.7-2.6 5.5-.8 1.4-1 2.7-.3 4.1 1 1.9 1.9 3.9 3 5.8 1.3 2.2 3 2.1 4.3 0 .5-.7.8-1.4 1.2-2.2.5-.1.8.1 1.2.3.8.6 1 1.3.4 2.1-.6.9-.7 2-1.6 2.8h-7.6c-.8-.2-.9-.9-1.1-1.5-.6-2.1-1.6-4-3.1-5.7-2.6-3.2-2.6-4.4.2-7.5 1.3-1.4 2.6-2.8 2.9-4.7.1-.7.7-1.2 1.4-1.5h3.9z" fill="#ffffff" data-color="1"/>
        <path d="M266.9 645.4c-.3-.2-.6-.3-.8-.5-2.3-2.2-3.1-4.7-1.9-7.5 1.3-3.1 4.3-4.1 7.8-4.1 1.3-.3 2.5-.9 3.8 0 .2 0 .3.1.5.1-3.2 3.1-4.7 7.1-6.6 10.8-.3.6-.3 1.2-1 1.6-.8.4-1.2-.2-1.8-.4z" fill="#ffffff" data-color="1"/>
        <path d="M311.7 674.3c.1.8 0 1.3-1.2 1.1-1.2-.3-2.2-.7-3.2-1.4-2.9-2.2-6.2-4.1-10-4.4-4.1-.3-8.3-.7-12.4.4-.6.1-1.2.1-1.9.2 1-2.2 2.7-3.1 5.5-3 4.9.2 9.8.1 14.7 0 1.3 0 2.1.3 2.6 1.4.4 1 1.1 1.9 1.4 2.9.7 1.9 1.9 3.2 4.5 2.8z" fill="#ffffff" data-color="1"/>
        <path d="M258.8 629.3c-.3.5-.8.8-.9 1.5-.2 2.2-1.8 3.7-3.3 5.3-2.2 2.3-2.6 3.2-.7 5.6 2.1 2.6 3.6 5.4 4.4 8.5-1.9.4-2.4-.3-2.8-1.9-1-3.4-4.2-5.5-6.9-7.8-2.1-1.8-2.2-2.5.4-3.7 1.7-.8 2.7-2.5 4.9-2.4.5 0 .7-.5.6-.8-.3-1.4.9-2.3 1.4-3.5.5-1.3 1.8-.7 2.9-.8z" fill="#ffffff" data-color="1"/>
        <path d="M268.6 650.6c-1.3.7-2 1.9-2.5 3.1-1 2.4-3 4.2-4.4 6.3-.8 1.2-2.2 1-2.7-.4-.7-2-1.4-4-1.5-6.1-.1-1-.3-1.9-.9-2.8 4-.1 8-.1 12-.1z" fill="#ffffff" data-color="1"/>
        <path d="M295 646.1c1.4 2.7 2.8 5.4 4.3 8.1.4.7.4 1.1-.8 1-3.7-.1-7.4-.1-11.1-.1-1.1-1-1.7-2.4-2.9-3.3.9-1.9 1.8-3.9 3-5.7 2.4-1 5-.8 7.5 0z" fill="#ffffff" data-color="1"/>
        <path d="M268.5 645.8c1.1-3.9 3.9-7.2 5.4-11 .4-1.1 1.5-.9 2.3-1.3 2.9-.2 2.9-.2 1.8 2.1-1.2 2.5-2.6 5-3.6 7.6-.9 2.3-2.1 3.5-5 3-.4.2-.7.1-.9-.4z" fill="#ffffff" data-color="1"/>
        <path d="M231.8 661.7c2.5-.3 4.9-1 5.1-3.4.3-2.4-2.4-2.7-4.2-3.9 2.4 0 4.8-.1 7.2 0 .9 0 1.4.8 1.4 1.6v4.5c0 1-.6 1.7-1.8 1.7-2.5.1-5 0-7.6 0-.1-.1-.1-.3-.1-.5z" fill="#ffffff" data-color="1"/>
        <path d="M295 646.1c-2.5 0-5.1 0-7.6.1 1.2-2.6 2.3-5.1 3.7-8.2 1.5 2.9 2.7 5.5 3.9 8.1z" fill="#ffffff" data-color="1"/>
        <path d="M214.4 634.2c1.1.7 2.3.1 3.7.5-.8.7-1.7 1.3-2.1 2.1-.6 1.2-.7 2.5.5 3.6.6.5 1.5 1 1.2 2-5.5.1-5.2.2-5.1-4.5.1-1.5-.7-3.2 1.8-3.7z" fill="#ffffff" data-color="1"/>
        <path d="M275.8 633.3H272c1.2-1.1 2.3-2.3 1.7-4.1 1.3.1 3.4-.6 3.8.5.4 1.1-.4 2.7-1.7 3.6z" fill="#ffffff" data-color="1"/>
        <path d="m268.5 645.8.9.3c.3 1.3-.7 2.4-1 3.6-.2.9-1.6.4-2.4.5.1-1 .4-2 1-2.7.8-.8.5-1.4-.2-2 .6 0 1.2.2 1.7.3z" fill="#ffffff" data-color="1"/>
        <path d="M284.5 651.8c2 .4 2.4 1.9 2.9 3.3h-.4c-4.2.1-4.2.1-2.5-3.3z" fill="#ffffff" data-color="1"/>
        <path d="M303.7 634.5c3.1 2 3.6 2.9 3 6.1-1-2-2-4-3-6.1z" fill="#ffffff" data-color="1"/>
        <path d="M414.1 638c3 6 5.7 11.5 8.5 17.2h-15.5c-.8 0-1.5 0-1-1 2.6-5.3 5.2-10.5 8-16.2z" fill="#ffffff" data-color="1"/>
        <path d="M291 646.5c2.2 0 3.8 1.4 3.8 3.3 0 2-1.7 3.5-3.8 3.4-1.8 0-3.6-1.7-3.6-3.3 0-2.1 1.4-3.4 3.6-3.4z" fill="#ffffff" data-color="1"/>
        <path d="M410.2 650c.1-2.2 2.2-4.3 4.2-4.2 1.7.1 4.1 2.9 4 4.6-.1 1.3-2.6 3.2-4.2 3.2-2.1 0-4.1-1.8-4-3.6z" fill="#ffffff" data-color="1"/>
    </g>
</svg>
