<?xml version="1.0" encoding="iso-8859-1"?>
<!-- Generator: Adobe Illustrator 19.0.0, SVG Export Plug-In . SVG Version: 6.00 Build 0)  -->
<svg version="1.1" id="Layer_1" xmlns="http://www.w3.org/2000/svg" xmlns:xlink="http://www.w3.org/1999/xlink" x="0px" y="0px"
	 viewBox="0 0 512.001 512.001" style="enable-background:new 0 0 512.001 512.001;" xml:space="preserve">
<circle style="fill:#71C5F4;" cx="421.896" cy="342.638" r="49.071"/>
<path style="fill:#FCEA81;" d="M421.894,293.569v49.074l-34.693,34.693c-8.89-8.875-14.381-21.151-14.381-34.693
	C372.82,315.532,394.796,293.569,421.894,293.569z"/>
<circle style="fill:#F9C573;" cx="404.59" cy="108.284" r="105.845"/>
<path style="fill:#AF7C38;" d="M300.06,63.722c0.837-3.696,1.28-7.547,1.28-11.505C301.34,23.382,277.958,0,249.123,0
	s-52.217,23.382-52.217,52.217c0,3.959,0.443,7.81,1.28,11.505"/>
<path style="fill:#9B6C34;" d="M196.906,52.217c0,3.959,0.443,7.81,1.28,11.505h30.334c-0.338-3.696-0.518-7.547-0.518-11.505
	C228.002,23.382,237.46,0,249.123,0C220.288,0,196.906,23.382,196.906,52.217z"/>
<g>
	<path style="fill:#E0B394;" d="M123.048,244.331c-14.83-0.658-26.635-12.893-26.635-27.878c0-15.404,12.486-27.902,27.902-27.902
		c1.387,0,2.751,0.096,4.09,0.299"/>
	<path style="fill:#E0B394;" d="M375.186,244.331c14.83-0.658,26.647-12.893,26.647-27.878c0-15.404-12.498-27.902-27.914-27.902
		c-1.387,0-2.763,0.108-4.09,0.299"/>
</g>
<path style="fill:#B3B3B3;" d="M379.49,419.395V512H118.765v-92.605c0-29.756,17.569-55.41,42.9-67.143
	c9.448-4.389,19.973-6.829,31.072-6.829h112.781c11.099,0,21.623,2.44,31.072,6.829C361.921,363.984,379.49,389.638,379.49,419.395z
	"/>
<g>
	<path style="fill:#999999;" d="M238.305,345.428h-45.574c-40.85,0-73.967,33.116-73.967,73.967V512h45.574v-92.605
		C164.339,378.544,197.454,345.428,238.305,345.428z"/>
	<path style="fill:#999999;" d="M336.59,352.251l-47.098,34.217c-24.075,17.485-56.666,17.485-80.729,0l-47.098-34.217
		c9.448-4.389,19.973-6.829,31.072-6.829h112.781C316.617,345.422,327.142,347.862,336.59,352.251z"/>
</g>
<path style="fill:#F7CBA4;" d="M208.759,364.94l-49.094-35.669c-25.943-18.849-39.978-50.018-36.894-81.938l8.515-88.118
	c5.865-60.69,56.865-107,117.838-107l0,0c60.973,0,111.973,46.31,117.838,107l8.515,88.118c3.084,31.92-10.95,63.088-36.894,81.938
	l-49.094,35.669C265.42,382.428,232.828,382.428,208.759,364.94z"/>
<path style="fill:#E0B394;" d="M153.322,264.699c-0.825,13.957,3.72,27.687,12.713,38.391l51.311,63.052
	c2.679,3.193,5.717,5.872,9.006,8.013c-6.171-2.153-12.103-5.238-17.593-9.221l-49.095-35.664
	c-25.941-18.849-39.97-50.016-36.884-81.937l8.503-88.12c5.812-60.098,55.876-106.096,116.07-106.969
	c-37.076,0.897-79.058,35.844-81.247,73.063L153.322,264.699z"/>
<path style="fill:#AF7C38;" d="M366.966,159.214l1.363,14.16c-40.652,19.016-90.907-21.408-90.907-21.408
	c-62.191,39.468-146.137,7.248-146.137,7.248c5.86-60.684,56.869-106.993,117.84-106.993c30.486,0,58.472,11.577,79.581,30.737
	C349.815,102.13,364.024,128.872,366.966,159.214z"/>
<path style="fill:#9B6C34;" d="M179.124,159.214c0,0,15.44,9.939,35.533,12.02c-44.467,2.918-83.372-12.02-83.372-12.02
	c5.86-60.684,56.869-106.993,117.84-106.993C212.887,52.461,182.605,98.686,179.124,159.214z"/>
<path style="fill:#F95428;" d="M491.815,48.313c11.745,17.043,18.621,37.697,18.621,59.967c0,35.82-17.796,67.489-45.029,86.637
	l-60.816-86.637L491.815,48.313z"/>
<path style="fill:#71C5F4;" d="M491.815,48.313l-87.223,59.967V2.435C440.782,2.435,472.727,20.602,491.815,48.313z"/>
<rect x="143.339" y="427.589" style="fill:#F9C573;" width="54.662" height="84.413"/>
<rect x="72.453" y="404.267" style="fill:#71C5F4;" width="54.662" height="107.734"/>
<rect x="1.565" y="379.151" style="fill:#F95428;" width="54.662" height="132.838"/>
<g>
	<path style="fill:#4D4D4D;" d="M195.881,253.122c-4.955,0-8.97-4.016-8.97-8.97v-14.347c0-4.954,4.015-8.97,8.97-8.97
		s8.97,4.016,8.97,8.97v14.347C204.851,249.106,200.836,253.122,195.881,253.122z"/>
	<path style="fill:#4D4D4D;" d="M302.365,253.122c-4.955,0-8.97-4.016-8.97-8.97v-14.347c0-4.954,4.015-8.97,8.97-8.97
		c4.955,0,8.97,4.016,8.97,8.97v14.347C311.335,249.106,307.32,253.122,302.365,253.122z"/>
</g>
<path style="fill:#E0B394;" d="M258.5,260.848h-0.408V242.31c0-4.954-4.015-8.97-8.97-8.97c-4.955,0-8.97,4.016-8.97,8.97v18.538
	h-0.408c-4.955,0-8.97,4.016-8.97,8.97s4.015,8.97,8.97,8.97H258.5c4.955,0,8.97-4.016,8.97-8.97S263.453,260.848,258.5,260.848z"/>
<path style="fill:#F2F2F2;" d="M285.965,302.742c0,0-0.537,1.674-1.666,4.318c-0.273,0.682-0.593,1.399-0.951,2.177
	c-0.423,0.765-0.913,1.543-1.44,2.416c-0.527,0.873-1.129,1.758-1.769,2.739c-0.226,0.371-0.47,0.682-0.734,1.005
	c-0.094,0.12-0.197,0.239-0.301,0.359c-0.367,0.431-0.744,0.885-1.129,1.34c-0.771,0.921-1.61,1.83-2.484,2.787
	c-0.922,0.861-1.91,1.674-2.927,2.559c-0.508,0.443-1.036,0.873-1.572,1.304c-0.537,0.407-1.111,0.741-1.694,1.112
	c-1.148,0.742-2.343,1.459-3.576,2.177c-2.541,1.1-5.186,2.392-8.008,2.93c-2.785,0.825-5.694,0.957-8.592,1.136
	c-2.899-0.179-5.807-0.299-8.592-1.124c-2.824-0.538-5.468-1.83-8.008-2.93c-1.233-0.706-2.428-1.423-3.586-2.165
	c-0.574-0.371-1.148-0.706-1.694-1.112c-0.527-0.443-1.054-0.861-1.562-1.304c-1.017-0.885-2.014-1.71-2.936-2.559
	c-0.875-0.957-1.703-1.878-2.484-2.787c-0.386-0.466-0.752-0.909-1.119-1.351c-0.132-0.155-0.263-0.311-0.395-0.466
	c-0.226-0.287-0.443-0.562-0.63-0.885c-0.611-0.945-1.204-1.818-1.722-2.679c-0.508-0.873-1.007-1.638-1.421-2.404
	c-0.377-0.813-0.725-1.555-1.017-2.236c-1.177-2.727-1.666-4.353-1.666-4.353s1.393,0.538,3.539,1.638
	c0.545,0.263,1.111,0.586,1.741,0.909c0.669,0.251,1.355,0.574,2.089,0.885c0.744,0.311,1.487,0.694,2.277,1.052
	c0.781,0.383,1.666,0.634,2.541,0.969c0.875,0.323,1.751,0.718,2.663,1.064c0.951,0.263,1.902,0.574,2.88,0.873
	c0.489,0.143,0.97,0.323,1.459,0.49c0.499,0.144,1.017,0.227,1.525,0.359c1.026,0.227,2.051,0.49,3.077,0.789
	c2.136,0.251,4.245,0.849,6.446,0.957c2.174,0.359,4.395,0.263,6.597,0.431c2.211-0.167,4.432-0.06,6.607-0.419
	c2.202-0.096,4.31-0.706,6.446-0.957c1.026-0.287,2.051-0.55,3.077-0.777c0.508-0.132,1.026-0.215,1.525-0.359
	c0.489-0.179,0.978-0.347,1.459-0.49c0.978-0.299,1.929-0.622,2.88-0.873c0.922-0.347,1.798-0.742,2.673-1.064
	c0.866-0.335,1.769-0.598,2.522-0.969c0.771-0.335,1.496-0.706,2.23-0.993c0.725-0.311,1.402-0.622,2.07-0.873
	c0.659-0.359,1.243-0.706,1.798-0.981C284.601,303.244,285.965,302.742,285.965,302.742z"/>
<path style="fill:#4D4D4D;" d="M279.405,315.396c-0.094,0.12-0.197,0.239-0.301,0.359c-0.367,0.431-0.744,0.885-1.129,1.34
	c-0.771,0.921-1.61,1.83-2.484,2.787c-0.922,0.861-1.91,1.674-2.927,2.559c-0.508,0.443-1.036,0.873-1.572,1.304
	c-0.537,0.407-1.111,0.741-1.694,1.112c-1.148,0.742-2.343,1.459-3.576,2.177c-2.541,1.1-5.186,2.392-8.008,2.93
	c-2.785,0.825-5.694,0.957-8.592,1.136c-2.899-0.179-5.807-0.299-8.592-1.124c-2.824-0.538-5.468-1.83-8.008-2.93
	c-1.233-0.706-2.428-1.423-3.586-2.165c-0.574-0.371-1.148-0.706-1.694-1.112c-0.527-0.443-1.054-0.861-1.562-1.304
	c-1.017-0.885-2.014-1.71-2.936-2.559c-0.875-0.957-1.703-1.878-2.484-2.787c-0.386-0.466-0.752-0.909-1.119-1.351
	c-0.132-0.155-0.263-0.311-0.395-0.466c0.301,0.132,0.603,0.263,0.913,0.395c0.744,0.311,1.487,0.682,2.277,1.04
	c0.781,0.395,1.666,0.646,2.541,0.981c0.875,0.323,1.751,0.706,2.663,1.064c0.951,0.251,1.902,0.574,2.88,0.873
	c0.489,0.144,0.97,0.311,1.459,0.478c0.499,0.144,1.017,0.227,1.525,0.359c1.026,0.227,2.051,0.502,3.077,0.789
	c2.136,0.263,4.245,0.861,6.446,0.957c2.174,0.371,4.395,0.263,6.597,0.443c2.211-0.167,4.432-0.06,6.607-0.431
	c2.202-0.096,4.31-0.694,6.446-0.945c1.026-0.287,2.051-0.562,3.077-0.789c0.508-0.132,1.026-0.215,1.525-0.359
	c0.489-0.167,0.978-0.335,1.459-0.478c0.978-0.299,1.929-0.622,2.88-0.873c0.922-0.359,1.798-0.753,2.673-1.064
	c0.866-0.335,1.769-0.61,2.522-0.969c0.771-0.347,1.496-0.706,2.231-1.005C278.831,315.647,279.123,315.515,279.405,315.396z"/>
<g>
	<path style="fill:#666666;" d="M281.857,208.338c0,0,0.024-0.238,0.104-0.647c0.092-0.396,0.185-1.021,0.386-1.729
		c0.09-0.366,0.206-0.747,0.338-1.167c0.173-0.426,0.407-0.854,0.654-1.34c0.245-0.488,0.555-0.97,0.88-1.512
		c0.328-0.55,0.719-0.968,1.119-1.499c0.407-0.511,0.865-1.005,1.343-1.536c0.506-0.48,1.055-0.952,1.638-1.427
		c1.142-1.006,2.538-1.733,3.992-2.541c1.505-0.636,3.101-1.326,4.811-1.646c1.694-0.44,3.47-0.544,5.241-0.627
		c1.771,0.081,3.548,0.176,5.243,0.614c1.711,0.316,3.309,1.009,4.815,1.641c1.456,0.807,2.852,1.533,3.996,2.54
		c0.582,0.476,1.133,0.95,1.64,1.427c0.478,0.532,0.934,1.031,1.343,1.538c0.395,0.529,0.805,0.963,1.105,1.491
		c0.301,0.526,0.593,0.997,0.83,1.475c0.236,0.478,0.464,0.899,0.636,1.324c0.157,0.443,0.295,0.843,0.398,1.222
		c0.227,0.733,0.322,1.363,0.409,1.758c0.077,0.408,0.093,0.64,0.093,0.64s-0.248-0.006-0.666-0.047
		c-0.407-0.053-1.038-0.079-1.735-0.181c-0.361-0.037-0.73-0.104-1.135-0.158c-0.432-0.02-0.858-0.08-1.32-0.116
		c-0.908-0.096-1.855-0.238-2.897-0.279c-0.512-0.033-1.008-0.108-1.527-0.151c-0.537-0.007-1.067-0.035-1.593-0.074
		c-1.031-0.134-2.152-0.055-3.192-0.185c-1.094,0.039-2.142-0.094-3.227-0.061c-1.067-0.08-2.146,0.005-3.216-0.071
		c-1.07,0.073-2.149-0.02-3.218,0.057c-1.086-0.038-2.134,0.1-3.23,0.056c-1.042,0.129-2.165,0.049-3.196,0.184
		c-0.526,0.039-1.056,0.068-1.594,0.074c-0.519,0.043-1.013,0.122-1.527,0.153c-1.062,0.057-1.945,0.158-2.831,0.234
		c-0.465,0.036-0.901,0.069-1.304,0.099c-0.429,0.078-0.822,0.164-1.195,0.213c-0.724,0.128-1.356,0.158-1.758,0.209
		C282.096,208.337,281.857,208.338,281.857,208.338z"/>
	<path style="fill:#666666;" d="M175.374,208.338c0,0,0.024-0.238,0.104-0.647c0.092-0.396,0.185-1.021,0.386-1.729
		c0.09-0.366,0.206-0.747,0.338-1.167c0.173-0.426,0.407-0.854,0.654-1.34c0.245-0.488,0.555-0.97,0.88-1.512
		c0.328-0.55,0.719-0.968,1.119-1.499c0.407-0.511,0.865-1.005,1.343-1.536c0.506-0.48,1.055-0.952,1.638-1.427
		c1.142-1.006,2.538-1.733,3.992-2.541c1.505-0.636,3.101-1.326,4.811-1.646c1.694-0.44,3.47-0.544,5.241-0.627
		c1.771,0.081,3.548,0.176,5.243,0.614c1.711,0.316,3.309,1.009,4.815,1.641c1.456,0.807,2.852,1.533,3.996,2.54
		c0.582,0.476,1.133,0.95,1.64,1.427c0.478,0.532,0.934,1.031,1.343,1.538c0.395,0.529,0.805,0.963,1.105,1.491
		c0.301,0.526,0.593,0.997,0.83,1.475c0.236,0.478,0.464,0.899,0.636,1.324c0.157,0.443,0.295,0.843,0.398,1.222
		c0.227,0.733,0.322,1.363,0.409,1.758c0.077,0.408,0.093,0.64,0.093,0.64s-0.248-0.006-0.666-0.047
		c-0.407-0.053-1.038-0.079-1.735-0.181c-0.361-0.037-0.73-0.104-1.135-0.158c-0.432-0.02-0.858-0.08-1.32-0.116
		c-0.908-0.096-1.855-0.238-2.897-0.279c-0.512-0.033-1.008-0.108-1.527-0.151c-0.537-0.007-1.067-0.035-1.593-0.074
		c-1.031-0.134-2.152-0.055-3.192-0.185c-1.094,0.039-2.142-0.094-3.227-0.061c-1.067-0.08-2.146,0.005-3.216-0.071
		c-1.07,0.073-2.149-0.02-3.218,0.057c-1.086-0.038-2.134,0.1-3.23,0.056c-1.042,0.129-2.165,0.049-3.196,0.184
		c-0.526,0.039-1.056,0.068-1.594,0.074c-0.519,0.043-1.013,0.122-1.527,0.153c-1.062,0.057-1.945,0.158-2.831,0.234
		c-0.465,0.036-0.901,0.069-1.304,0.099c-0.429,0.078-0.822,0.164-1.195,0.213c-0.724,0.128-1.356,0.158-1.758,0.209
		C175.613,208.337,175.374,208.338,175.374,208.338z"/>
</g>
<rect x="237.655" y="387.081" style="fill:#999999;" width="22.951" height="124.921"/>
<g>
</g>
<g>
</g>
<g>
</g>
<g>
</g>
<g>
</g>
<g>
</g>
<g>
</g>
<g>
</g>
<g>
</g>
<g>
</g>
<g>
</g>
<g>
</g>
<g>
</g>
<g>
</g>
<g>
</g>
</svg>
